<?xml version="1.0" encoding="UTF-8" standalone="no"?>
<svg
   viewBox="0 0 520 140"
   role="img"
   aria-label="PlantLab logo"
   version="1.1"
   id="svg8"
   sodipodi:docname="plantlab-logo.svg"
   xml:space="preserve"
   inkscape:version="1.4.2 (f4327f4, 2025-05-13)"
   xmlns:inkscape="http://www.inkscape.org/namespaces/inkscape"
   xmlns:sodipodi="http://sodipodi.sourceforge.net/DTD/sodipodi-0.dtd"
   xmlns:xlink="http://www.w3.org/1999/xlink"
   xmlns="http://www.w3.org/2000/svg"
   xmlns:svg="http://www.w3.org/2000/svg"><sodipodi:namedview
     id="namedview8"
     pagecolor="#ffffff"
     bordercolor="#999999"
     borderopacity="1"
     inkscape:showpageshadow="2"
     inkscape:pageopacity="0"
     inkscape:pagecheckerboard="0"
     inkscape:deskcolor="#d1d1d1"
     inkscape:zoom="1.7701923"
     inkscape:cx="223.1396"
     inkscape:cy="44.910375"
     inkscape:window-width="1920"
     inkscape:window-height="1111"
     inkscape:window-x="-9"
     inkscape:window-y="-9"
     inkscape:window-maximized="1"
     inkscape:current-layer="svg8" /><defs
     id="defs4"><linearGradient
       id="g1"
       x1="0"
       x2="1"
       y1="0"
       y2="1"><stop
         offset="0"
         stop-color="#22ff88"
         id="stop1" /><stop
         offset="0.55"
         stop-color="#00e5ff"
         id="stop2" /><stop
         offset="1"
         stop-color="#ff2bd6"
         id="stop3" /></linearGradient><filter
       id="glow"
       x="-0.10212766"
       y="-0.1168357"
       width="1.2255319"
       height="1.2336714"><feGaussianBlur
         stdDeviation="4"
         result="b"
         id="feGaussianBlur3" /><feMerge
         id="feMerge4"><feMergeNode
           in="b"
           id="feMergeNode3" /><feMergeNode
           in="SourceGraphic"
           id="feMergeNode4" /></feMerge></filter><linearGradient
       inkscape:collect="always"
       xlink:href="#g1"
       id="linearGradient13"
       x1="-12.292704"
       y1="11.577615"
       x2="75.360405"
       y2="11.577615"
       gradientUnits="userSpaceOnUse"
       gradientTransform="translate(52.81912,59.315589)" /></defs><!-- Icon --><!-- Wordmark --><g
     transform="translate(140,34)"
     id="g8"><text
       x="0"
       y="44"
       font-family="system-ui, -apple-system, Segoe UI, Roboto, Arial"
       font-size="56"
       font-weight="800"
       fill="#eafff7"
       letter-spacing="1"
       id="text7">
      PlantLab
    </text><text
       x="2"
       y="78"
       font-family="system-ui, -apple-system, Segoe UI, Roboto, Arial"
       font-size="16"
       font-weight="600"
       fill="#9bd8c2"
       opacity="0.9"
       id="text8">
      cyber-botanical dashboard
    </text><rect
       x="0"
       y="88"
       width="300"
       height="3"
       fill="url(#g1)"
       opacity="0.9"
       id="rect8" /></g><path
     style="fill:url(#linearGradient13);stroke-width:0.42993"
     d="m 64.773209,115.72501 c -0.228319,-0.53205 -1.587735,-6.48121 -3.020924,-13.22036 -1.433184,-6.739146 -2.70628,-12.591566 -2.829098,-13.005376 -0.160948,-0.54229 -0.671409,-0.75238 -1.828066,-0.75238 -0.882616,0 -1.836923,-0.23216 -2.120677,-0.51591 -0.358974,-0.35898 -0.515916,-2.6431 -0.515916,-7.50865 0,-6.47349 0.06175,-7.02578 0.831596,-7.43779 0.521209,-0.27894 5.736383,-0.44505 13.972723,-0.44505 h 13.141127 v -4.27974 c 0,-3.40987 -0.204328,-4.84267 -1.005288,-7.04929 -2.655622,-7.31615 -11.657946,-15.78485 -23.608201,-22.2088 -2.612757,-1.40451 -3.331957,-1.9965 -3.331957,-2.74261 0,-1.17793 0.762567,-1.98333 1.877852,-1.98333 2.477914,0 14.430538,7.77879 19.724931,12.83703 1.841455,1.75931 3.453275,3.09357 3.581824,2.96502 0.537429,-0.53743 0.910579,-5.4527 0.590526,-7.77867 -0.905347,-6.57958 -5.614317,-11.58173 -12.410903,-13.1836 -4.521487,-1.06566 -17.425042,0.027 -22.693828,1.92175 -0.382678,0.13762 -0.291781,0.99482 0.35173,3.31701 2.546732,9.19018 7.30848,16.59453 12.871933,20.0154 3.239328,1.9918 8.573241,2.7295 13.280672,1.83675 2.820147,-0.53483 4.002596,-0.0278 3.810112,1.63372 -0.187032,1.61447 -1.700678,2.20206 -6.481455,2.5161 -4.637801,0.30465 -7.373797,-0.18898 -11.278919,-2.03494 -7.540773,-3.56455 -13.848808,-13.32893 -16.782263,-25.97775 -0.853337,-3.67951 -0.5335,-4.10275 4.023616,-5.32442 8.244254,-2.210111 19.016737,-2.884151 24.304698,-1.52076 11.652706,3.00441 17.957061,14.78922 14.02518,26.21743 l -0.828531,2.40817 1.119382,2.209 c 0.615664,1.21495 1.345638,2.86252 1.622169,3.66126 l 0.502786,1.45226 1.524097,-1.86979 c 1.285796,-1.57744 1.564661,-2.30672 1.783547,-4.66433 0.846098,-9.11319 6.328233,-16.03476 13.997356,-17.67265 5.2406,-1.11922 14.05529,-0.36694 21.47645,1.8329 3.86506,1.14571 4.20158,1.65112 3.33251,5.00497 -1.5865,6.12252 -5.15668,12.6474 -8.91337,16.29015 -5.72804,5.55432 -14.14301,7.48514 -22.151499,5.08269 -3.346183,-1.00381 -4.227415,-2.16161 -2.962204,-3.89189 0.561403,-0.76776 0.753831,-0.78524 2.687062,-0.24401 5.903361,1.65271 9.704991,1.66188 14.056151,0.0339 4.83831,-1.81024 10.02917,-8.03277 12.50191,-14.98662 0.62124,-1.74705 1.07567,-3.22035 1.00985,-3.274 -0.0658,-0.0537 -1.08703,-0.40628 -2.26934,-0.78362 -3.83065,-1.22257 -7.83139,-1.66951 -13.43051,-1.50038 -4.90954,0.1483 -5.71243,0.28443 -7.63605,1.2947 -2.814493,1.47814 -4.639709,3.43582 -6.020313,6.45721 -1.097753,2.40239 -1.865526,5.49679 -1.363845,5.49679 0.138669,0 0.986225,-0.50229 1.883454,-1.11621 2.534067,-1.73389 7.662424,-4.20889 12.346754,-5.95868 3.52836,-1.31798 4.44418,-1.51273 5.29365,-1.12568 0.81626,0.37192 0.99956,0.74219 0.89268,1.8033 -0.12732,1.26411 -0.34074,1.40885 -4.00386,2.7154 -13.842622,4.93731 -22.537615,12.34551 -23.313518,19.86328 l -0.237957,2.30558 h 13.516953 c 9.939952,0 13.653482,0.13653 14.032872,0.51591 0.72321,0.72322 0.72321,14.15237 0,14.87558 -0.28375,0.28375 -1.23559,0.51592 -2.11519,0.51592 h -1.59927 l -0.64615,2.90202 c -0.35538,1.59612 -1.65765,7.64201 -2.89393,13.435306 -1.23627,5.79331 -2.43571,10.77513 -2.66542,11.07071 -0.32298,0.41559 -4.744715,0.53741 -19.50611,0.53741 H 65.188341 Z m 36.117751,-3.13255 c 0,-0.35457 4.72616,-22.239176 4.98716,-23.093186 0.21688,-0.70964 -1.00075,-0.75238 -21.435079,-0.75238 H 62.77802 l 2.580083,12.038036 2.580078,12.03804 h 16.47639 c 9.062016,0 16.476389,-0.10373 16.476389,-0.23051 z m 9.45846,-31.799266 v -4.08433 H 84.338659 58.327898 v 4.08433 4.08433 h 26.010761 26.010761 z"
     id="path12" /></svg>
